Coordinates
version=1
nRows=29
nColumns=24
inDegrees=yes

Units are S.I. units (second, meters, Newtons, ...)
Angles are in degrees.

endheader
time	pelvis_tilt	pelvis_list	pelvis_rotation	pelvis_tx	pelvis_ty	pelvis_tz	hip_flexion_r	hip_adduction_r	hip_rotation_r	knee_angle_r	ankle_angle_r	subtalar_angle_r	mtp_angle_r	hip_flexion_l	hip_adduction_l	hip_rotation_l	knee_angle_l	ankle_angle_l	subtalar_angle_l	mtp_angle_l	lumbar_extension	lumbar_bending	lumbar_rotation
      0.62500000	      0.08651973	      8.18015704	      0.94896441	     -0.83799672	      1.04902062	      0.30049967	     24.46291305	     -4.13371515	    -12.11625339	      1.87602017	      9.89699431	      3.37716318	      0.22426440	    -23.32669895	     13.26325145	     -0.37859107	      0.75350655	     -1.64098917	      1.11635055	      0.43300412	      3.12753194	     -6.66955470	     -2.22143349
      0.62916667	      0.10447492	      8.16631041	      1.02468132	     -0.83148401	      1.04878757	      0.30025321	     24.34905982	     -4.10868806	    -11.99088292	      1.50737267	      9.95393230	      3.33722003	      0.23185314	    -23.47912316	     13.20157309	     -0.31832191	      0.32559527	     -1.74318279	      1.07051172	      0.45296467	      3.19120063	     -6.58754186	     -2.24926778
      0.63333333	      0.16883126	      8.08807287	      1.07694399	     -0.82478998	      1.04862054	      0.30003576	     24.13274122	     -4.00835687	    -11.67128521	      1.17291217	     10.34735812	      3.02394685	      0.26343553	    -23.70449136	     13.07198452	     -0.18249898	     -0.03050442	     -2.27851572	      0.89924796	      0.54402178	      3.14917541	     -6.42097781	     -2.37231634
      0.63750000	      0.18985143	      8.07079337	      1.15256184	     -0.81823411	      1.04838836	      0.29977414	     24.00688003	     -3.98680211	    -11.50839211	      0.76721748	     10.33155470	      2.97194648	      0.26964885	    -23.83402571	     13.00555011	     -0.16326543	     -0.50280566	     -2.38585453	      0.84346107	      0.56562892	      3.21680345	     -6.36367925	     -2.39148100
      0.64166667	      0.36060153	      7.99731831	      1.11152604	     -0.81161157	      1.04834609	      0.29978324	     23.64791382	     -3.85189173	    -10.78028603	      0.49331258	     10.32894581	      1.99122415	      0.34478068	    -24.10808280	     12.89955728	     -0.19087068	     -0.93305370	     -3.09555088	      0.32662831	      0.90026650	      3.02803651	     -6.31312608	     -2.57810784
      0.64583333	      0.36789700	      7.97340970	      1.20063005	     -0.80494874	      1.04815231	      0.29950442	     23.50728606	     -3.83459184	    -10.58810198	      0.08972496	     10.30776415	      1.97625336	      0.35187389	    -24.18686343	     12.81630501	     -0.12116530	     -1.47166164	     -3.22130274	      0.34317844	      0.92748998	      3.11336274	     -6.20459270	     -2.59043797
      0.65000000	      0.41992704	      7.89346502	      1.19651581	     -0.79816752	      1.04798167	      0.29942265	     23.27961637	     -3.71444348	    -10.09158368	     -0.23303267	     10.27109613	      1.41675331	      0.40069101	    -24.30985820	     12.69693947	     -0.18738823	     -1.95146554	     -3.96685936	      0.35282816	      1.16046563	      3.16842822	     -6.03503099	     -2.66825916
      0.65416667	      0.42097784	      7.84795575	      1.31583008	     -0.79142008	      1.04786811	      0.29917522	     23.10211863	     -3.68430197	     -9.88457145	     -0.56964677	     10.21574714	      1.40795643	      0.40712355	    -24.32437838	     12.56933924	     -0.17767256	     -2.60565738	     -4.06853388	      0.32364158	      1.18743864	      3.22503944	     -5.95146767	     -2.67523199
      0.65833333	      0.48191344	      7.72415422	      1.28878337	     -0.78452759	      1.04775693	      0.29917862	     22.82736257	     -3.51115591	     -9.30804060	     -0.83030633	      9.83555530	      0.71242915	      0.45825270	    -24.40099524	     12.40496217	     -0.39682781	     -3.15314301	     -4.94504167	      0.34499946	      1.46419270	      3.24946059	     -5.72738884	     -2.76671254
      0.66250000	      0.52989290	      7.60459063	      1.33905810	     -0.77767357	      1.04773101	      0.29916860	     22.53875537	     -3.36649870	     -8.78652760	     -1.03669263	      9.40318405	     -0.05644165	      0.53724614	    -24.41986845	     12.20330868	     -0.60295818	     -3.83140298	     -5.40727566	      0.37790729	      1.89560517	      3.23525592	     -5.54882183	     -2.81467235
      0.66666667	      0.51685004	      7.56680090	      1.48070290	     -0.77106480	      1.04769801	      0.29932016	     22.31026054	     -3.31709849	     -8.19023519	     -1.23028134	      8.94084844	     -1.16749313	      1.41748428	    -24.30260326	     12.01958032	     -0.77869373	     -4.64387212	     -5.66071807	      1.04261006	      6.24914479	      3.22302461	     -5.63058268	     -2.54487474
      0.67083333	      0.55286485	      7.35373195	      1.40627514	     -0.76391280	      1.04763519	      0.29915141	     22.07459526	     -3.06690364	     -7.99581611	     -1.51205451	      8.65064811	     -1.03761403	      1.45912263	    -24.28934438	     11.80106964	     -1.12895878	     -5.32781327	     -6.23702068	      0.75463788	      6.42845767	      3.39424353	     -5.18417239	     -2.71368271
      0.67500000	      0.58557998	      7.20832821	      1.48973669	     -0.75702744	      1.04771475	      0.29894924	     21.82626958	     -2.93597942	     -7.87910321	     -1.76881862	      8.21697505	     -1.16002932	      1.50260053	    -24.21195733	     11.56462772	     -1.30738687	     -6.12186734	     -6.90529028	      0.74119283	      6.63699159	      3.41718164	     -4.98215670	     -2.79025104
      0.67916667	      0.68269427	      7.03446004	      1.50388800	     -0.75020370	      1.04787342	      0.29903072	     21.46644849	     -2.73420769	     -7.31277065	     -1.91447532	      7.59596403	     -2.11349005	      1.73719278	    -24.16332957	     11.29744658	     -1.60506059	     -6.96856445	     -7.47972587	      0.75091755	      7.72821823	      3.34605904	     -4.74482238	     -2.93778630
      0.68333333	      0.51920127	      6.82433158	      1.47234433	     -0.74303005	      1.04767190	      0.29936925	     21.39434909	     -2.45370045	     -6.78517499	     -2.08877395	      6.91301485	     -3.01535496	      3.09668299	    -23.78855808	     11.00395022	     -2.29607540	     -7.92147187	     -7.92641532	      1.36940830	     13.64923363	      3.76847800	     -4.52189500	     -2.66713761
      0.68750000	      0.59877056	      6.66291807	      1.60086459	     -0.73626464	      1.04796426	      0.29898147	     21.13417020	     -2.34851842	     -7.02669022	     -2.41299604	      6.43047007	     -2.78153013	      3.13622789	    -23.66528625	     10.72965679	     -2.37560311	     -8.86838084	     -8.76595612	      1.26709118	     13.80512617	      3.66722966	     -4.22762801	     -2.77004914
      0.69166667	      0.64846643	      6.45716867	      1.66722483	     -0.72938016	      1.04820780	      0.29875478	     20.89055992	     -2.16926439	     -7.07977957	     -2.70565936	      5.96267808	     -2.74368778	      3.17648904	    -23.47611981	     10.42310827	     -2.63499291	     -9.88099398	     -9.42100603	      1.20897264	     13.96805219	      3.67966108	     -3.93751832	     -2.86189650
      0.69583333	      0.68908030	      6.24686254	      1.72214261	     -0.72252571	      1.04845881	      0.29860146	     20.66520872	     -1.97979366	     -7.09619956	     -3.01012892	      5.44122463	     -2.83390112	      3.21998352	    -23.23821435	     10.10500989	     -2.94535196	    -10.95309694	    -10.11882100	      1.24971968	     14.14921305	      3.70975242	     -3.64066767	     -2.93626621
      0.70000000	      0.73147089	      6.00610724	      1.77456028	     -0.71563047	      1.04875659	      0.29849615	     20.42958427	     -1.75472557	     -7.07190324	     -3.30142105	      4.85914660	     -3.04640530	      3.27803561	    -22.97231531	      9.74538438	     -3.28775141	    -12.06861285	    -10.88172557	      1.32415795	     14.39148173	      3.75627964	     -3.31026227	     -3.00126362
      0.70416667	      0.75195881	      5.78555236	      1.80318641	     -0.70884193	      1.04902222	      0.29843533	     20.25148192	     -1.54646983	     -7.07904777	     -3.65167184	      4.35633885	     -3.24955111	      3.32860746	    -22.63758053	      9.41257005	     -3.65443326	    -13.26873825	    -11.55763562	      1.38429064	     14.60157973	      3.77913871	     -3.00208736	     -3.04204137
      0.70833333	      0.77586701	      5.53880970	      1.83499580	     -0.70204303	      1.04932944	      0.29838541	     20.06476967	     -1.31392237	     -7.06852794	     -3.99435680	      3.81937794	     -3.47298690	      3.38512529	    -22.27875386	      9.04210897	     -4.02424552	    -14.50712960	    -12.32199130	      1.45661928	     14.83438947	      3.83793105	     -2.66157770	     -3.06982695
      0.71250000	      0.78724171	      5.30584823	      1.91697645	     -0.69537077	      1.04967712	      0.29834538	     19.89029236	     -1.10984743	     -7.04745646	     -4.34859081	      3.54135410	     -3.52212394	      3.41028876	    -21.85765123	      8.65611282	     -4.31830645	    -15.85329595	    -12.77155109	      1.44883502	     14.93210187	      3.73205121	     -2.43740842	     -3.08622461
      0.71666667	      0.85285719	      5.02437623	      1.91863054	     -0.68860475	      1.05007847	      0.29834822	     19.65832104	     -0.83535795	     -6.97147116	     -4.67481484	      2.78469953	     -3.93613923	      3.50404468	    -21.48857065	      8.24670768	     -4.68399987	    -17.14442448	    -13.92404897	      1.47289261	     15.31152977	      3.92147535	     -1.99126444	     -3.07481732
      0.72083333	      0.88895470	      4.78118496	      1.86981846	     -0.68203227	      1.05041630	      0.29838402	     19.53303387	     -0.59161052	     -7.09625776	     -5.15219302	      2.38461455	     -4.13086350	      3.56162597	    -21.03955468	      7.89725315	     -5.09975127	    -18.53309201	    -14.64263249	      1.47937043	     15.53599912	      3.87797285	     -1.62532620	     -3.08403282
      0.72500000	      0.92723808	      4.51287936	      1.87854861	     -0.67546603	      1.05081918	      0.29841194	     19.36573101	     -0.33750140	     -7.13193674	     -5.55588289	      1.94454638	     -4.28060612	      3.62054901	    -20.56440401	      7.48872481	     -5.43243620	    -19.96021971	    -15.47676582	      1.44504770	     15.75701097	      3.87191817	     -1.25679536	     -3.07336735
      0.72916667	      0.97552199	      4.23687421	      1.86889708	     -0.66894344	      1.05124136	      0.29846345	     19.19227989	     -0.07072949	     -7.16159436	     -5.96592878	      1.52521746	     -4.44363868	      3.68494429	    -20.07485257	      7.07334043	     -5.76157684	    -21.41389205	    -16.33643823	      1.36244266	     15.98959489	      3.86856942	     -0.88191645	     -3.04813667
      0.73333333	      1.02278081	      3.96939777	      1.84974440	     -0.66251747	      1.05166353	      0.29854408	     19.03059636	      0.18833623	     -7.19169291	     -6.39114217	      1.13350725	     -4.60156869	      3.75509563	    -19.55445156	      6.66602734	     -6.06673256	    -22.89660945	    -17.24229408	      1.22055372	     16.23059355	      3.85129270	     -0.51550703	     -3.00487277
      0.73750000	      1.08620856	      3.70617808	      1.84429693	     -0.65623999	      1.05210885	      0.29869908	     18.85410296	      0.44606719	     -7.20945179	     -6.81988433	      0.96393969	     -4.58484715	      3.77996453	    -19.01085748	      6.24441013	     -6.35245927	    -24.46437399	    -17.69452041	      1.15579066	     16.30530670	      3.69772185	     -0.30257640	     -3.00030086
      0.74166667	      1.15068336	      3.41932791	      1.78513447	     -0.64984490	      1.05255250	      0.29875064	     18.67948911	      0.72723092	     -7.28986637	     -7.25070306	      0.46702923	     -4.76785473	      3.85158280	    -18.48030544	      5.83207566	     -6.63265345	    -25.92314712	    -19.01644310	      0.93768310	     16.52189228	      3.77877389	      0.21843800	     -2.92842215
